<?xml version="1.0" encoding="UTF-8"?>
<svg viewBox="0 0 561.10889 174.00876" xmlns="http://www.w3.org/2000/svg">
 <defs>
  <filter id="o">
   <feGaussianBlur stdDeviation="1.09932"/>
  </filter>
  <filter id="n">
   <feGaussianBlur stdDeviation=".80279"/>
  </filter>
  <filter id="m">
   <feGaussianBlur stdDeviation="2.02481"/>
  </filter>
  <filter id="h">
   <feGaussianBlur stdDeviation=".55972"/>
  </filter>
  <filter id="g">
   <feGaussianBlur stdDeviation="1.32701"/>
  </filter>
  <filter id="f">
   <feGaussianBlur stdDeviation="2.91749"/>
  </filter>
  <filter id="p">
   <feGaussianBlur stdDeviation=".88895"/>
  </filter>
  <filter id="a"/>
  <filter id="l" x="-.04408" y="-.69824" width="1.0882" height="2.3965">
   <feGaussianBlur stdDeviation="2.20405"/>
  </filter>
  <filter id="k" x="-.01711" y="-.10105" width="1.0342" height="1.2021">
   <feGaussianBlur stdDeviation="1.76157"/>
  </filter>
  <filter id="j" x="-.00755" y="-.23546" width="1.0151" height="1.4709">
   <feGaussianBlur stdDeviation=".66297"/>
  </filter>
  <filter id="i" x="-.005" y="-.19665" width="1.01" height="1.3933">
   <feGaussianBlur stdDeviation=".20609"/>
  </filter>
  <filter id="e" x="-.37161" y="-.37161" width="1.7432" height="1.7432">
   <feGaussianBlur stdDeviation=".81171"/>
  </filter>
  <filter id="d" x="-.42018" y="-1.4951" width="1.8404" height="3.9901">
   <feGaussianBlur stdDeviation=".81171"/>
  </filter>
  <filter id="c" x="-.10156" y="-1.4951" width="1.2031" height="3.9901">
   <feGaussianBlur stdDeviation=".81171"/>
  </filter>
  <filter id="b" x="-.09696" y="-1.9481" width="1.1939" height="4.8962">
   <feGaussianBlur stdDeviation=".81171"/>
  </filter>
 </defs>
 <g transform="translate(-69.197 -316.71)">
  <path d="m246.24 481.43s7.2727 5.7576 9.3939 6.9697 12.727 1.8182 15.152 1.8182 11.818-1.2121 11.818-1.2121 6.6667-1.8182 7.5758-3.0303 2.1212-4.2424 2.1212-4.2424l-46.061-0.30303z" fill="#333434" fill-rule="evenodd" stroke="#000"/>
  <path d="m341.52 480.4s1.8182 3.6364 3.9394 5.4546 5.4545 1.8182 6.9697 1.8182 8.7879-2.1212 11.212-2.1212 10.303-1.8182 15.152-1.5152 15.455-0.30303 15.455-0.30303 7.2727 1.2121 9.697 1.8182 4.8485 2.4242 8.1818 2.4242 8.1818 0.30303 9.3939-1.2121 2.7273-4.8485 2.7273-4.8485l-0.90909-2.7273-81.818 1.2121z" fill="#333434" fill-rule="evenodd" stroke="#000"/>
  <path d="m101.52 416.6h-6.0606l-3.0303-3.9394-18.788 0.60606-3.3333-1.5152-0.60606-16.97 2.7273-2.4242 20.606 0.30303v-6.0606h7.5758l0.90909 30z" fill="#dfdfdf" fill-rule="evenodd" stroke="#8b8b8b"/>
  <path d="m93.03 403.27-19.394 0.90909" fill="none" filter="url(#b)" stroke="#000"/>
  <path d="m92.121 399.03-18.182 0.30303" fill="none" filter="url(#c)" stroke="#000"/>
  <path d="m99.394 403.27-3.6364-0.30303" fill="none" filter="url(#d)" stroke="#000"/>
  <path d="m99.394 400.54h-3.6364l-0.30303-4.2424h4.2424l-0.30303 4.2424z" fill-rule="evenodd" filter="url(#e)" stroke="#000"/>
  <path d="m86.061 399.94a5.6061 5.7576 0 1 1 -11.212 0 5.6061 5.7576 0 1 1 11.212 0z" fill="#dadbdb" stroke="#a9a9a9" stroke-linejoin="round" stroke-width="1.4"/>
  <path d="m78.485 406 1.5152 15.758-3.6364-0.30303 1.5152 23.939s4.8485-1.5152 5.7576-6.3636 0.30303-20.606 0.30303-20.606l-2.1212 0.90909-0.60606-13.333h-2.7273z" fill="#dfdfdf" fill-rule="evenodd" stroke="#818181"/>
  <path d="m176.36 317.21 383.64 1.2121s66.667 12.121 69.697 78.788-58.182 77.576-58.182 77.576l-401.82 9.697s-67.69-13.306-69.091-85.455c-1.2121-61.818 70.303-80 70.303-80l5.4546-1.8182z" fill="#000e31" fill-rule="evenodd" stroke="#000"/>
  <path d="m549.09 332.97 21.212 0.60606s48.485 27.879 50.303 62.424-35.152 70.909-35.152 70.909 45.455-32.727 43.636-63.03-18.788-53.939-28.485-61.818-29.091-12.727-32.727-12.727-18.788 4.2424-18.788 3.6364z" fill="#0033b3" fill-rule="evenodd" filter="url(#g)"/>
  <path d="m163.64 474.18s-44.848-38.788-44.242-79.394 58.788-63.636 58.788-63.636l1.2121-6.0606s-67.879 12.121-69.697 73.333 53.939 75.758 53.939 75.758z" fill="#1256ff" fill-rule="evenodd" filter="url(#f)"/>
  <path d="m195.76 331.76 376.36 3.6364s47.273 15.152 47.879 64.848-51.515 69.091-51.515 69.091l-399.39 3.6364s-53.333-26.061-51.515-77.576 60.606-64.242 60.606-64.242l17.576 0.60606z" fill="#011e67" fill-rule="evenodd"/>
  <path d="m474.55 318.42 6.6667 15.758s36.364 19.394 39.394 65.455-40 67.879-40 67.879l-2.7793 8.9743" fill="none" stroke="#000" stroke-width="2.3"/>
  <path d="m165.45 457.21a3.0303 3.0303 0 1 1 -6.0606 0 3.0303 3.0303 0 1 1 6.0606 0z" fill="#232423" opacity=".89256" stroke="#5f615f" stroke-linejoin="round" stroke-width=".6"/>
  <path transform="translate(-19.697 -13.636)" d="m165.45 457.21a3.0303 3.0303 0 1 1 -6.0606 0 3.0303 3.0303 0 1 1 6.0606 0z" fill="#232423" opacity=".89256" stroke="#5f615f" stroke-linejoin="round" stroke-width=".6"/>
  <path transform="translate(-33.03 -33.333)" d="m165.45 457.21a3.0303 3.0303 0 1 1 -6.0606 0 3.0303 3.0303 0 1 1 6.0606 0z" fill="#232423" opacity=".89256" stroke="#5f615f" stroke-linejoin="round" stroke-width=".6"/>
  <path transform="translate(-37.576 -56.364)" d="m165.45 457.21a3.0303 3.0303 0 1 1 -6.0606 0 3.0303 3.0303 0 1 1 6.0606 0z" fill="#232423" opacity=".89256" stroke="#5f615f" stroke-linejoin="round" stroke-width=".6"/>
  <path transform="translate(-33.03 -80)" d="m165.45 457.21a3.0303 3.0303 0 1 1 -6.0606 0 3.0303 3.0303 0 1 1 6.0606 0z" fill="#232423" opacity=".89256" stroke="#5f615f" stroke-linejoin="round" stroke-width=".6"/>
  <path transform="translate(-20 -99.394)" d="m165.45 457.21a3.0303 3.0303 0 1 1 -6.0606 0 3.0303 3.0303 0 1 1 6.0606 0z" fill="#232423" opacity=".89256" stroke="#5f615f" stroke-linejoin="round" stroke-width=".6"/>
  <path transform="translate(-.60606 -113.94)" d="m165.45 457.21a3.0303 3.0303 0 1 1 -6.0606 0 3.0303 3.0303 0 1 1 6.0606 0z" fill="#232423" opacity=".89256" stroke="#5f615f" stroke-linejoin="round" stroke-width=".6"/>
  <path transform="matrix(1.0431 0 0 1.0431 -18.192 -23.708)" d="m234.55 405.54a38.333 38.333 0 1 1 -76.667 0 38.333 38.333 0 1 1 76.667 0z" fill="#fefefe" filter="url(#a)" opacity=".89256" stroke="#5f615f" stroke-linejoin="round" stroke-width="1.1753"/>
  <path transform="matrix(.93333 0 0 .93333 3.5364 21.129)" d="m234.55 405.54a38.333 38.333 0 1 1 -76.667 0 38.333 38.333 0 1 1 76.667 0z" fill="#fcfcfc" filter="url(#a)" opacity=".89256" stroke="#5f615f" stroke-linejoin="round" stroke-width=".6"/>
  <path transform="matrix(.84312 0 0 .84312 21.387 57.862)" d="m234.55 405.54a38.333 38.333 0 1 1 -76.667 0 38.333 38.333 0 1 1 76.667 0z" fill="#c8c9c8" opacity=".89256" stroke="#5f615f" stroke-linejoin="round" stroke-width=".6"/>
  <path transform="matrix(.69409 0 0 .69409 50.629 118)" d="m234.55 405.54a38.333 38.333 0 1 1 -76.667 0 38.333 38.333 0 1 1 76.667 0z" fill="none" filter="url(#n)" opacity=".89256" stroke="#414241" stroke-linejoin="round" stroke-width="2.3282"/>
  <path transform="matrix(.58036 0 0 .58036 73.399 163.67)" d="m234.55 405.54a38.333 38.333 0 1 1 -76.667 0 38.333 38.333 0 1 1 76.667 0z" fill="#7e827e" filter="url(#o)" opacity=".89256" stroke="#5f615f" stroke-linejoin="round" stroke-width=".6"/>
  <path d="m177.27 405.39 7.8788-6.6667-8.1818-6.0606 0.30303 12.727z" fill="#525452" fill-rule="evenodd" stroke="#c7c7c7"/>
  <path d="m189.09 406.3v-16.061h3.6364v17.576h-3.6364v-1.5152z" fill="#525452" fill-rule="evenodd" stroke="#c7c7c7"/>
  <path d="m142.80862,463.0158 1.49466,1.24874-1.36227,2.80851 2.88876-.95307c.37686-.12036.70766-.0616.99238.17628 .14647.12237.25824.27792.33533.46668s.10432.36693.08168.53454l-.41796,3.01734 2.5153-1.8452 1.5008,1.25388-4.40291,2.95119c-.1772.1213-.38305.17552-.61753.16267s-.44523-.09742-.6323-.2537c-.28881-.24131-.39624-.62116-.32227-1.13957l.48788-3.31142-3.17819,1.06376c-.49288.16842-.88373.13198-1.17257-.10932-.19113-.1597-.31286-.35293-.36517-.57966s-.03657-.4398.04717-.63918l2.12721-4.85247zm-1.93912-1.59952 1.3606,1.13674-3.67497,4.39871-1.36061-1.13674 3.67498-4.39871zm-7.03563-3.95119 1.82666-.40073 2.20847,1.8451c.76459.63879 1.22047,1.38054 1.36767,2.22525s-.04762,1.58837-.58446,2.23095-1.2199.95586-2.04916.93989-1.63227-.34844-2.40902-.99738l-3.08707-2.57914 1.83179-.40688 2.20848,1.84511c.37409.31255.76726.47009 1.17948.47264s.74914-.15275 1.01077-.46591 .34686-.66315.26596-1.06226-.3084-.75495-.6825-1.0675l-3.08707-2.57914z" fill="#fcfcfc"/>
  <path d="m284.85 463.57 190.91-2.1212s37.576-16.667 37.576-61.818-40.303-61.818-40.303-61.818l-196.06 0.90909s-31.818 16.364-33.939 61.818 39.091 63.636 39.091 63.636l2.7273-0.60606z" fill="#0d0d0d" fill-rule="evenodd" stroke="#000"/>
  <path d="m272.42 456.6s7.5758 4.5454 10 4.5454 190.61-1.8182 192.12-2.4242 7.5758-3.3333 7.5758-3.3333" fill="none" filter="url(#j)" stroke="#a9a9a9"/>
  <path d="m367.27 457.21 97.879-1.5152" fill="none" filter="url(#i)" stroke="#dedede"/>
  <path d="m479.09 454.18s6.9697-3.0303 8.4848-4.8485 7.2727-8.4848 7.2727-8.4848" fill="none" stroke="#000"/>
  <path d="m498.03 437.82s10.606-14.545 11.818-23.03 1.8494-21.861 0.30303-29.394c-1.5741-7.6677-5.2714-17.283-10.303-23.939-4.5159-5.9745-17.273-17.576-19.091-18.485s-6.9697-3.0303-6.9697-3.0303" fill="none" filter="url(#h)" stroke="#aeaeae" stroke-width="1.4"/>
  <path d="m471.52 340.24h-191.21c0.08235-0.08235-12.564 5.8552-19.697 15.455-3.8259 5.149-8.6364 10.455-12.121 22.576-3.1861 11.082-3.3333 23.182-3.3333 23.182" fill="none" filter="url(#p)" stroke="#686868" stroke-width="2"/>
  <path d="m289.09 419.63v-48.788h17.879v-15.455h-36.364s-16.364 14.848-17.576 26.364-3.3333 26.061 0 34.545 13.939 7.8788 13.939 7.8788l22.121-4.5454z" fill="#03758b" fill-rule="evenodd" filter="url(#m)"/>
  <path d="m351.82 362.06 27.576 7.5758 60.606-0.60606 31.818-5.7576-120-1.2121z" fill="#9f9f9f" fill-rule="evenodd" filter="url(#l)"/>
  <path d="m491.21 440.54-222.73 2.4242s-9.697-3.3333-13.636-10.606-8.1818-22.121-8.1818-22.121l-1.5152 0.30303s2.7273 23.333 13.03 33.333 16.97 6.6667 16.97 6.6667l210-3.3333 6.0606-6.6667z" fill="#5b5b5b" fill-rule="evenodd" filter="url(#k)"/>
  <path d="m288.79 371.15h156.67v50h-155.76l-0.90909-50z" fill="#474747" fill-rule="evenodd" stroke="#000"/>
  <path transform="scale(.78727 1.2702)" d="m404.20322,352.49502h-3.11194l-1.20672-4.83925-2.56576,4.12793c-.3388.53365-.80461.80047-1.39743.80047-.30495,0-.60136-.07623-.88924-.2287s-.5038-.34306-.64774-.57177l-2.57855-4.12793-1.19392,4.83925h-3.12474l2.37544-8.12912c.09303-.33026.28988-.60761.59056-.83206s.64573-.33666 1.03518-.33667c.60135,1e-005 1.12221.35573 1.56257,1.06717l2.79408,4.56015 2.80726-4.56015c.43181-.71144.9484-1.06716 1.54977-1.06717 .39796,1e-005 .74515.11223 1.04158.33667s.49538.5018.59696.83206l2.36264,8.12912zm12.6788-5.75369c-1e-005,1.03293-.4445,1.87125-1.33347,2.51499-.85539.60962-1.91389.91443-3.17551.91443h-4.78886v2.29907h-2.83246v-4.67451h7.9008c.38944,1e-005 .71751-.09735.98421-.29208s.40003-.45295.40004-.77469-.13335-.57576-.40004-.76209-.59477-.27948-.98421-.27949h-7.9008l1.88004-2.37543h5.75407c1.25309,1e-005 2.30733.30482 3.16272.91443 .88897.64374 1.33346,1.4822 1.33347,2.51537zm12.16558,1.19392c.5419.49101.81286,1.04145.81287,1.65133-1e-005,.43183-.13969.84247-.41904,1.23191-.38971.55044-.98254.96961-1.77847,1.25749-.70267.25403-1.48169.38105-2.33706.38105h-6.09713l-1.82887-2.36265h8.20549c.2964,1e-005 .57588-.02958.83845-.08876 .38944-.08476.58416-.21604.58417-.39384s-.19473-.30907-.58417-.39384c-.26257-.05918-.54205-.08877-.83845-.08877h-3.64572l-1.84166-2.37543h5.48738c.23696,0 .45288-.03385.64774-.10156 .27934-.10156.41902-.24977.41903-.44462s-.13969-.33853-.41903-.43183c-.19486-.0677-.41078-.10155-.64774-.10156h-6.37662l-1.82887-2.37544h7.926c.86364,1e-005 1.64266.13129 2.33706.39384 .79593.29642 1.38876.72412 1.77847,1.28308 .27935.39798.41903.81714.41904,1.25749-1e-005,.62668-.27097,1.19405-.81287,1.70211zm14.37316-4.62372-9.79363,9.17108h-3.41662l9.8948-9.17108h3.31545zm16.71991,0-2.37505,8.1295c-.0933.32174-.28389.5927-.57176.81288-.31322.23697-.66455.35546-1.05398.35546-.60137,0-1.12222-.35559-1.56256-1.06678l-2.79447-4.56015-2.80726,4.56015c-.43184.71119-.9483,1.06678-1.54939,1.06678-.3897,0-.73483-.11429-1.03537-.34287s-.49747-.50373-.59076-.82547l-2.37505-8.1295h3.11195l1.20671,4.83963 2.56576-4.12832c.33879-.54191.8046-.81286 1.39743-.81287 .3132,1e-005 .61162.07624.89525.2287s.50165.3472.65413.58417l2.56577,4.12832 1.1943-4.83963h3.12435zm16.97537,9.18349h-3.11195l-1.20671-4.83925-2.56576,4.12793c-.33881.53365-.80461.80047-1.39743.80047-.30495,0-.60136-.07623-.88924-.2287s-.5038-.34306-.64774-.57177l-2.57855-4.12793-1.19392,4.83925h-3.12474l2.37544-8.12912c.09303-.33026.28988-.60761.59056-.83206s.64573-.33666 1.03518-.33667c.60135,1e-005 1.1222.35573 1.56256,1.06717l2.79409,4.56015 2.80726-4.56015c.43181-.71144.9484-1.06716 1.54977-1.06717 .39796,1e-005 .74515.11223 1.04158.33667s.49538.5018.59695.83206l2.36265,8.12912zm4.79079-.0252 1.7149-2.37544h3.82326l-2.37505-3.28986-4.12833,5.6653h-3.51857l5.86842-8.14191c.18632-.27108.44462-.50818.77489-.71131 .36411-.22017.71557-.33026 1.05437-.33027 .34706,1e-005 .69851.1101 1.05437.33027 .3132.1946.56723.4317.76209.71131l5.72849,8.14191h-10.75884zm23.83343-9.15829-9.79363,9.17108h-3.41663l9.8948-9.17108h3.31546zm16.71991,0-2.37505,8.1295c-.09331.32174-.28389.5927-.57176.81288-.31323.23697-.66455.35546-1.05399.35546-.60136,0-1.12221-.35559-1.56256-1.06678l-2.79447-4.56015-2.80726,4.56015c-.43183.71119-.94829,1.06678-1.54938,1.06678-.38971,0-.73483-.11429-1.03538-.34287s-.49746-.50373-.59075-.82547l-2.37505-8.1295h3.11194l1.20671,4.83963 2.56577-4.12832c.33879-.54191.80459-.81286 1.39743-.81287 .3132,1e-005 .61161.07624.89524.2287s.50166.3472.65414.58417l2.56576,4.12832 1.19431-4.83963h3.12435zm4.40006,9.15829 1.7149-2.37544h3.82326l-2.37505-3.28986-4.12833,5.6653h-3.51857l5.86842-8.14191c.18632-.27108.44462-.50818.77489-.71131 .36411-.22017.71557-.33026 1.05437-.33027 .34706,1e-005 .69851.1101 1.05437.33027 .3132.1946.56723.4317.76209.71131l5.72849,8.14191h-10.75884zm25.85301-9.15829-6.17349,8.26905c-.50807.68586-1.02453,1.02879-1.54939,1.02879-.52512,0-1.04171-.34719-1.54977-1.04158l-6.02076-8.25626h3.53098l4.09033,5.6653 4.11554-5.6653h3.55656z" fill="#dfdfdf"/>
  <path transform="scale(.57969 1.725)" d="m455.95219,232.29835h-3.45847l-1.34108-5.37812-2.85147,4.5876c-.37653.59307-.89421.8896-1.55304.8896-.33891,0-.66833-.08472-.98826-.25417s-.5599-.38126-.71987-.63543l-2.86569-4.5876-1.32686,5.37812h-3.47269l2.63995-9.03433c.10339-.36703.32216-.67527.65632-.92471s.71764-.37414 1.15046-.37416c.66831,2e-005 1.24716.39535 1.73656,1.186l3.10521,5.06794 3.11986-5.06794c.4799-.79065 1.05402-1.18598 1.72235-1.186 .44227,2e-005 .82812.12473 1.15756.37416s.55055.55768.66343.92471l2.62573,9.03433zm14.09065-6.39438c-2e-005,1.14795-.494,2.07962-1.48196,2.79504-.95064.67751-2.12702,1.01626-3.52912,1.01626h-5.32212v2.55508h-3.14786v-5.19503h8.78059c.4328,0 .7974-.1082 1.0938-.32461s.44458-.50339.44459-.86096-.14821-.63987-.44459-.84695-.661-.3106-1.0938-.31061h-8.78059l2.08938-2.63995h6.39482c1.39262,1e-005 2.56426.33876 3.5149,1.01626 .98796.71543 1.48194,1.64725 1.48196,2.79547zm13.52026,1.32687c.60224.54568.90337,1.15742.90339,1.83521-2e-005,.47991-.15525.93628-.4657,1.36908-.43311.61174-1.09195,1.07758-1.97651,1.39752-.78091.28232-1.64668.42348-2.5973.42348h-6.77607l-2.03252-2.62573h9.1192c.3294,0 .64001-.03288.93182-.09866 .4328-.09419.6492-.24009.64922-.43769s-.21642-.34349-.64922-.43769c-.29181-.06577-.60242-.09865-.93182-.09866h-4.05169l-2.04673-2.63995h6.09842c.26335,1e-005 .5033-.03761.71986-.11287 .31046-.11286.46569-.27757.4657-.49412s-.15524-.37623-.4657-.47992c-.21656-.07524-.45651-.11286-.71986-.11287h-7.08668l-2.03252-2.63995h8.80859c.95981,2e-005 1.82558.14591 2.5973.4377 .88456.32943 1.5434.80474 1.97651,1.42595 .31045.4423.46568.90814.4657,1.39752-2e-005,.69647-.30115,1.32702-.90339,1.89165z" fill="#e8e8e8"/>
  <path d="m304.98315,354.10202c-1e-005,1.26921-.36803,2.3236-1.10408,3.16316s-1.66429,1.25934-2.78465,1.25934h-4.31788v-5.42276h2.00248v3.18136h2.3154c.55417,0 1.01005-.1908 1.36763-.57239s.53636-.88167.53636-1.50022-.1803-1.12663-.54085-1.5243-.81496-.59647-1.36314-.59648h-4.31788l1.26941-2.25354h3.04847c1.13819,2e-005 2.07086.39369 2.79801,1.18102s1.09071,1.81562 1.09072,3.08481zm2.8283,4.4225h-1.99374v-8.68833h1.99374v8.68833zm9.04554-8.68833-1.28744,2.25354h-3.23615c-.54837,1e-005-1.00278.19884-1.36326.59648s-.54073.90576-.54073,1.5243 .17879,1.11862.53636,1.50022 .81345.57239 1.36763.57239h2.3244v-.8072h-2.5031l-1.31416-2.14505h5.81973v5.19365h-4.32687c-1.12037,0-2.04859-.41978-2.78465-1.25934s-1.10409-1.89395-1.10409-3.16316 .36353-2.29746 1.09059-3.08481 1.65976-1.181 2.79815-1.18102h4.52359zm2.65286,8.68833h-1.99374v-8.68833h1.99374v8.68833zm8.27674-8.68833-1.29643,2.25354h-1.931v6.43479h-2.00248v-6.43479h-2.65506l1.28743-2.25354h6.59754zm3.09375,8.68833 1.20695-2.25354h2.69079l-1.67155-3.12104-2.90551,5.37458h-2.47636l4.13018-7.72409c.13113-.25718.31292-.48211.54536-.67482 .25627-.20887.50362-.31331.74206-.31331s.49162.10444.74206.31331c.22045.18462.39922.40955.53637.67482l4.0317,7.72409h-7.57205zm14.56572-2.2414-1.29643,2.2414h-5.69451v-8.68833h1.99348v6.44693h4.99746zm19.32282,2.26529h-2.19017l-.84928-4.5909-1.80578,3.9161c-.23845.50626-.56628.75939-.9835.75939-.21462,0-.42324-.07232-.62585-.21697s-.35457-.32546-.45587-.54242l-1.81479-3.9161-.84027,4.5909h-2.19918l1.67183-7.71194c.06547-.31331.20401-.57644.41564-.78937s.45445-.31938.72855-.31938c.42322,0 .78979.33747 1.09972,1.0124l1.96647,4.32614 1.97574-4.32614c.30392-.67493.66749-1.0124 1.09072-1.0124 .28009,0 .52445.10647.73307.31938s.34864.47606.42013.78937l1.66282,7.71194zm8.92331-5.45841c-1e-005,.97992-.31284,1.77523-.93849,2.38592-.60202.57834-1.347.86751-2.23492.86751h-3.37038v2.18109h-1.99347v-4.43462h5.56055c.27409,0 .50498-.09237.69268-.2771s.28155-.4297.28156-.73494-.09385-.54622-.28156-.72298-.41859-.26514-.69268-.26515h-5.56055l1.32315-2.25354h4.0497c.88192,2e-005 1.6239.28918 2.22592.86752 .62565.61071.93848,1.40613.93849,2.38629zm8.5621,1.13265c.38139.46581.5721.988.5721,1.56659 0,.40967-.09831.79923-.29492,1.16869-.27427.5222-.6915.91985-1.25169,1.19296-.49452.24099-1.0428.36149-1.64481.36149h-4.29114l-1.28716-2.2414h5.775c.20861,0 .40531-.02807.59011-.08421 .27408-.08042.41113-.20495.41114-.37363s-.13706-.29321-.41114-.37363c-.1848-.05614-.3815-.08421-.59011-.08421h-2.56584l-1.29615-2.25354h3.86199c.16678,1e-005 .31874-.0321.45588-.09635 .19661-.09633.29492-.23694.29492-.42179s-.09831-.32117-.29492-.40968c-.13714-.06422-.2891-.09633-.45588-.09634h-4.48784l-1.28716-2.25353h5.5783c.60784,0 1.1561.12455 1.64481.37363 .56019.2812.97742.68695 1.25169,1.21722 .19661.37757.29492.77522.29492,1.19296 0,.59453-.19071,1.13278-.5721,1.61477zm13.2633-1.13265c-1e-005,.97992-.31284,1.77523-.9385,2.38592-.60201.57834-1.34699.86751-2.23491.86751h-3.37039v2.18109h-1.99348v-4.43462h5.56056c.27409,0 .50498-.09237.69268-.2771s.28154-.4297.28156-.73494-.09387-.54622-.28156-.72298-.41859-.26514-.69268-.26515h-5.56056l1.32317-2.25354h4.0497c.88192,2e-005 1.6239.28918 2.22591.86752 .62566.61071.93849,1.40613.9385,2.38629zm6.98875,3.19312-1.29643,2.2414h-5.69452v-8.68833h1.99348v6.44693h4.99747zm3.10412,2.2414 1.20694-2.25354h2.6908l-1.67155-3.12104-2.9055,5.37458h-2.47636l4.13016-7.72409c.13114-.25718.31292-.48211.54537-.67482 .25627-.20887.50363-.31331.74207-.31331s.49161.10444.74206.31331c.22044.18462.39922.40955.53636.67482l4.03169,7.72409h-7.57204zm17.39947-8.68833-3.82599,5.80816v2.88017h-2.00248v-2.89194l-3.94248-5.79639h2.55657l2.41389,3.53071 2.25265-3.53071h2.54784zm7.13989,6.44693-1.28742,2.2414h-5.71253v-8.68833h6.99995l-1.28742,2.25354h-3.71004v.91568h4.68454l-1.28742,2.24141h-3.39712v1.0363h4.99746zm9.87627,2.2414h-2.90524l-1.94899-2.18109h-2.75328v2.18109h-2.00248v-4.43462h5.56029c.33974,0 .61983-.06828.84027-.20484 .28009-.17676.42014-.43786.42014-.7833 0-.67468-.42014-1.01202-1.26041-1.01203h-5.56029l1.30516-2.25354h4.06743c1.00724,2e-005 1.82377.25707 2.44963.77117 .70313.58643 1.0547,1.42195 1.05471,2.50654-1e-005,.61046-.14155,1.16275-.42464,1.65687s-.67492.8737-1.17544,1.13872l2.33314,2.61503z" fill="#e8e8e8"/>
 </g>
</svg>
